<svg width="18" height="18" viewBox="0 0 18 18" fill="none" xmlns="http://www.w3.org/2000/svg">
<path fill-rule="evenodd" clip-rule="evenodd" d="M13.1339 3.94473C12.6457 3.45657 11.8543 3.45657 11.3661 3.94473L10.6864 4.62442L13.3758 7.31376L14.0555 6.63407C14.5436 6.14591 14.5436 5.35446 14.0555 4.8663L13.1339 3.94473ZM3.5 11.8108L9.62576 5.68508L12.3151 8.37442L6.18934 14.5002H3.5V11.8108ZM10.3055 2.88407C11.3794 1.81013 13.1206 1.81013 14.1945 2.88407L15.1161 3.80564C16.1901 4.87958 16.1901 6.62079 15.1161 7.69473L7.03033 15.7805L6.81066 16.0002H6.5H2.75H2V15.2502V11.5002V11.1895L2.21967 10.9699L10.3055 2.88407ZM16 16.0002H8.93198L10.432 14.5002H16V16.0002Z" fill="#161618"/>
</svg>
