<svg width="18" height="18" viewBox="0 0 18 18" fill="none" xmlns="http://www.w3.org/2000/svg">
<path fill-rule="evenodd" clip-rule="evenodd" d="M12.5 5.5H11.75H6.25H5.5H5V13.25C5 13.9404 5.55964 14.5 6.25 14.5H11.75C12.4404 14.5 13 13.9404 13 13.25V5.5H12.5ZM12.5 3.25V4H16V5.5H14.5V13.25C14.5 14.7688 13.2688 16 11.75 16H6.25C4.73122 16 3.5 14.7688 3.5 13.25V5.5H2V4H5.5V3.25C5.5 2.00736 6.50736 1 7.75 1H10.25C11.4926 1 12.5 2.00736 12.5 3.25ZM7 4V3.25C7 2.83579 7.33579 2.5 7.75 2.5H10.25C10.6642 2.5 11 2.83579 11 3.25V4H7Z" fill="#161618"/>
</svg>
