<svg width="18" height="18" viewBox="0 0 18 18" fill="none" xmlns="http://www.w3.org/2000/svg">
<path fill-rule="evenodd" clip-rule="evenodd" d="M16 2H15.25H2.75H2V2.75V12.75C2 14.5449 3.45507 16 5.25 16H12.75C14.5449 16 16 14.5449 16 12.75V2.75V2ZM14.5 3.5V12.75C14.5 13.477 14.0566 14.1005 13.4255 14.3649L6.78033 7.71967L6.25 7.18934L5.71967 7.71967L3.5 9.93934V3.5H14.5ZM3.5 12.0607L6.25 9.31066L11.4393 14.5H5.25C4.2835 14.5 3.5 13.7165 3.5 12.75V12.0607ZM10.75 6.5C11.1642 6.5 11.5 6.83579 11.5 7.25C11.5 7.66421 11.1642 8 10.75 8C10.3358 8 10 7.66421 10 7.25C10 6.83579 10.3358 6.5 10.75 6.5ZM13 7.25C13 6.00736 11.9926 5 10.75 5C9.50736 5 8.5 6.00736 8.5 7.25C8.5 8.49264 9.50736 9.5 10.75 9.5C11.9926 9.5 13 8.49264 13 7.25Z" fill="#161618"/>
</svg>
