<svg width="18" height="18" viewBox="0 0 18 18" fill="none" xmlns="http://www.w3.org/2000/svg">
<path fill-rule="evenodd" clip-rule="evenodd" d="M4.5 2H5.25H12.75H13.5V2.75V6H13.75C15.2688 6 16.5 7.23122 16.5 8.75V12.25V13H15.75H13.5V15.25V16H12.75H5.25H4.5V15.25V13H2.25H1.5V12.25V8.75C1.5 7.23122 2.73122 6 4.25 6H4.5V2.75V2ZM4.5 11.5V10.75V10H5.25H12.75H13.5V10.75V11.5H15V8.75C15 8.05964 14.4404 7.5 13.75 7.5H4.25C3.55964 7.5 3 8.05964 3 8.75V11.5H4.5ZM12 3.5V6H6V3.5H12ZM12 11.5H6V14.5H12V11.5Z" fill="#161618"/>
</svg>
