<svg width="18" height="18" viewBox="0 0 18 18" fill="none" xmlns="http://www.w3.org/2000/svg">
<path fill-rule="evenodd" clip-rule="evenodd" d="M2 2H2.75H13.25H13.5607L13.7803 2.21967L15.7803 4.21967L16 4.43934V4.75V15.25V16H15.25H2.75H2V15.25V2.75V2ZM3.5 3.5V14.5H5V11.75C5 10.5074 6.00736 9.5 7.25 9.5H10.75C11.9926 9.5 13 10.5074 13 11.75V14.5H14.5V5.06066L13 3.56066V6.25C13 7.49264 11.9926 8.5 10.75 8.5H7.25C6.00736 8.5 5 7.49264 5 6.25V3.5H3.5ZM6.5 3.5V6.25C6.5 6.66421 6.83579 7 7.25 7H10.75C11.1642 7 11.5 6.66421 11.5 6.25V3.5H6.5ZM11.5 14.5H6.5V11.75C6.5 11.3358 6.83579 11 7.25 11H10.75C11.1642 11 11.5 11.3358 11.5 11.75V14.5Z" fill="#161618"/>
</svg>
