<svg width="18" height="18" viewBox="0 0 18 18" fill="none" xmlns="http://www.w3.org/2000/svg">
<path fill-rule="evenodd" clip-rule="evenodd" d="M9 3C8.8878 3 8.7087 3.05267 8.46975 3.30075C8.22877 3.55093 7.97719 3.95242 7.75003 4.51C7.57462 4.94054 7.42256 5.44246 7.30208 6H10.6979C10.5774 5.44246 10.4254 4.94054 10.25 4.51C10.0228 3.95242 9.77123 3.55093 9.53025 3.30075C9.2913 3.05267 9.1122 3 9 3ZM6.36089 3.94406C6.11578 4.54569 5.91642 5.24047 5.77151 6H3.80269C4.43198 4.91214 5.39302 4.0402 6.54747 3.52251C6.4819 3.65886 6.41972 3.79964 6.36089 3.94406ZM5.56511 7.5H3.18903C3.06563 7.97943 3 8.48205 3 9C3 9.51795 3.06563 10.0206 3.18903 10.5H5.56511C5.52228 10.0142 5.5 9.51229 5.5 9C5.5 8.48771 5.52228 7.98581 5.56511 7.5ZM5.77151 12H3.80269C4.43198 13.0879 5.39302 13.9598 6.54747 14.4775C6.4819 14.3411 6.41972 14.2004 6.36089 14.0559C6.11578 13.4543 5.91642 12.7595 5.77151 12ZM7.30208 12H10.6979C10.5774 12.5575 10.4254 13.0595 10.25 13.49C10.0228 14.0476 9.77123 14.4491 9.53025 14.6992C9.2913 14.9473 9.1122 15 9 15C8.8878 15 8.7087 14.9473 8.46975 14.6992C8.22877 14.4491 7.97719 14.0476 7.75003 13.49C7.57462 13.0595 7.42256 12.5575 7.30208 12ZM10.9285 10.5H7.0715C7.02498 10.0216 7 9.51939 7 9C7 8.48061 7.02498 7.97841 7.0715 7.5H10.9285C10.975 7.97841 11 8.48061 11 9C11 9.51939 10.975 10.0216 10.9285 10.5ZM12.2285 12C12.0836 12.7595 11.8842 13.4543 11.6391 14.0559C11.5803 14.2004 11.5181 14.3411 11.4525 14.4775C12.607 13.9598 13.568 13.0879 14.1973 12H12.2285ZM14.811 10.5H12.4349C12.4777 10.0142 12.5 9.51229 12.5 9C12.5 8.48771 12.4777 7.98581 12.4349 7.5H14.811C14.9344 7.97943 15 8.48205 15 9C15 9.51795 14.9344 10.0206 14.811 10.5ZM11.4525 3.52251C12.607 4.0402 13.568 4.91214 14.1973 6H12.2285C12.0836 5.24047 11.8842 4.54569 11.6391 3.94406C11.5803 3.79964 11.5181 3.65885 11.4525 3.52251ZM9 16.5C13.1421 16.5 16.5 13.1421 16.5 9C16.5 4.85786 13.1421 1.5 9 1.5C4.85786 1.5 1.5 4.85786 1.5 9C1.5 13.1421 4.85786 16.5 9 16.5Z" fill="#161618"/>
</svg>
