<svg width="18" height="18" viewBox="0 0 18 18" fill="none" xmlns="http://www.w3.org/2000/svg">
<path fill-rule="evenodd" clip-rule="evenodd" d="M9 3C5.68629 3 3 5.68629 3 9C3 10.3438 3.44178 11.5845 4.18803 12.5846C4.8673 11.6258 5.98557 11 7.25001 11H10.75C12.0144 11 13.1327 11.6258 13.812 12.5846C14.5582 11.5844 15 10.3438 15 9C15 5.68629 12.3137 3 9 3ZM9 15C7.58689 15 6.28789 14.5115 5.26264 13.6941C5.64089 12.9837 6.38897 12.5 7.25001 12.5H10.75C11.6111 12.5 12.3591 12.9837 12.7374 13.6941C11.7121 14.5115 10.4131 15 9 15ZM1.5 9C1.5 4.85786 4.85786 1.5 9 1.5C13.1421 1.5 16.5 4.85786 16.5 9C16.5 13.1421 13.1421 16.5 9 16.5C4.85786 16.5 1.5 13.1421 1.5 9ZM7.75 7.25C7.75 6.55964 8.30964 6 9 6C9.69036 6 10.25 6.55964 10.25 7.25C10.25 7.94036 9.69036 8.5 9 8.5C8.30964 8.5 7.75 7.94036 7.75 7.25ZM9 4.5C7.48122 4.5 6.25 5.73122 6.25 7.25C6.25 8.76878 7.48122 10 9 10C10.5188 10 11.75 8.76878 11.75 7.25C11.75 5.73122 10.5188 4.5 9 4.5Z" fill="#161618"/>
</svg>
